inDegrees=yes
name=ik_s24_walk_orientation
DataType=double
version=3
OpenSimVersion=4.5
endheader
time	pelvis_tilt	pelvis_list	pelvis_rotation	pelvis_tx	pelvis_ty	pelvis_tz	hip_flexion_r	hip_adduction_r	hip_rotation_r	knee_angle_r	knee_angle_r_beta	ankle_angle_r	subtalar_angle_r	mtp_angle_r	hip_flexion_l	hip_adduction_l	hip_rotation_l	knee_angle_l	knee_angle_l_beta	ankle_angle_l	subtalar_angle_l	mtp_angle_l	lumbar_extension	lumbar_bending	lumbar_rotation	arm_flex_r	arm_add_r	arm_rot_r	elbow_flex_r	pro_sup_r	wrist_flex_r	wrist_dev_r	arm_flex_l	arm_add_l	arm_rot_l	elbow_flex_l	pro_sup_l	wrist_flex_l	wrist_dev_l
3.788461538461529	0.3533090861829105	-7.790236274026829	22.26743409039135	0	0.93	0	10.16876861901979	29.98198109306745	-17.2016132333795	33.7900208124664	0.5897471174949481	-4.999999701598886	0	0	-10.92283904706266	29.99346493386414	-4.603585363720528	0.03235874865256481	0.0005647667058125347	-4.999999702210879	0	0	0	0	-8.87534903033212e-12	0	0	87.81235436841403	0	6.145264080538439e-39	0	0	0	0	80.50552422042897	1.502326615048166e-38	4.209125861882274e-39	0	0
3.807692307692299	0.8240651266289029	-7.710957587520275	29.68199842538069	0	0.93	0	11.64201803475381	29.98500001692744	-23.05757227701132	20.77034393214385	0.3625108883875359	-4.999999707228728	0	0	-29.80692530860844	29.99353408430376	19.36066599296537	0.01750817650715313	0.0003055753260701426	-4.999999707808257	0	0	0	0	-8.87534903033212e-12	0	0	80.52288959515488	0	0	0	0	0	0	88.7066380703794	0	0	0	0
3.826923076923068	1.225450556152896	-6.329864132895656	24.37184610180346	0	0.93	0	-7.247418699562457	29.99032642463673	-2.125634185399569	0.2055414680846594	0.00358737536746015	-4.99999971929136	1.060775719515563e-20	1.939207874974913e-19	-24.68498102082338	29.9934241638138	18.23351075269589	0.02242329973200621	0.0003913604094850705	-4.99999971982228	-1.065303944750839e-20	1.292757853273828e-19	-5.83042588947857e-30	7.756240187143111e-22	-8.87534903033212e-12	1.942431084970322e-24	-5.519495764678839e-24	86.08904037526722	3.726695388642933e-07	3.726706070294641e-07	4.358861473525367e-20	-1.912430449258793e-21	-1.077641627399689e-19	-1.175643078033146e-21	84.29343732909474	3.726686818357428e-07	3.72668422264518e-07	1.402818789878279e-19	-7.389974295964618e-22
3.846153846153837	3.185209388312084	-8.641104404173245	16.06044774371423	0	0.93	0	-15.54959069785083	29.99025134930833	6.557048466136706	0.04764101335092231	0.0008314925419601709	-4.999999757692099	0	0	2.856190828651143	29.99390189306619	-15.62979734632565	4.614414846375725	0.08053673212216474	-4.999999757810107	0	0	0	0	-8.87534903033212e-12	0	0	89.96682217009258	0	0	0	0	0	0	78.53042816986797	0	0	0	0
3.865384615384606	5.071551839578249	-9.164759096478557	12.2145591300506	0	0.93	0	-22.1802196649135	29.98812017185487	10.83629451417964	0.04188980327932227	0.0007311149902368914	-4.999999760097898	0	0	22.29980314201136	29.99394630287919	-39.8774647185008	13.84832183741715	0.2416988119387601	-4.999999760231933	0	0	0	0	-8.87534903033212e-12	0	0	89.98155824878035	0	8.04231740586261e-39	0	0	0	0	74.46535036270456	0	3.17321861225434e-39	0	0
3.884615384615375	7.452009521067001	-10.59905701166231	20.61527404028719	0	0.93	0	-12.4940058763283	29.98851124396912	-8.128530508141896	9.563245085732863	0.1669101139212059	-4.999999780562606	0	0	-13.71537560916993	29.99455851712831	-8.234979374339403	0.04673867062191379	0.0008157436903575415	-4.999999781516642	0	0	0	0	-8.87534903033212e-12	0	0	89.10047115322403	0	0	0	0	0	0	82.40383935488552	0	0	0	0
3.903846153846144	9.097370650819022	-11.51706738262413	27.17214677436688	0	0.93	0	-0.2636277505943195	29.95552252484725	-20.5097456521711	35.31412506717577	0.616347754883281	-4.999999789987824	0	0	-29.35395275784039	29.99308169785374	3.147145601457885	0.01839926993621705	0.0003211278403501946	-4.999999790814287	0	0	0	0	-8.87534903033212e-12	0	0	81.89775314737476	0	1.722715239718967e-38	0	0	0	0	87.54931833560137	0	0	0	0
3.923076923076914	9.718651095448651	-11.97616983874167	25.45259148905053	0	0.93	0	29.46494078134156	14.59462889737074	-26.2412365935011	66.36196834210305	1.158234845673941	-4.999999802353576	0	0	-25.86412417388416	29.99272522068507	-4.846222892196314	0.02093146497727199	0.0003653229811192763	-4.999999803012666	0	0	0	0	-8.87534903033212e-12	0	0	83.38138472153966	4.209429071474227e-38	1.052357267868557e-38	0	0	0	0	83.09032060070768	0	0	0	0
3.942307692307683	8.256753351613259	-12.16554309587122	20.03797855472943	0	0.93	0	33.2554115714974	16.77189476375319	-16.60443888956931	66.61381425235885	1.162630386015587	-4.999999804570366	0	0	-11.64456312890075	29.99275690945298	-17.74504552699633	0.05283135518394612	0.0009220810962504342	-4.999999805199455	0	0	0	0	-8.87534903033212e-12	0	0	88.36457714764761	5.911677505452796e-39	0	0	0	0	0	71.63063254103798	0	0	0	0
3.961538461538452	7.475294236253525	-11.64943264944265	19.55705652481246	0	0.93	0	20.61175874363114	15.52468023204537	-26.03931992161191	65.13092599521163	1.136749103489207	-4.999999805526532	0	0	-6.404798176815098	29.9921520243754	-20.26682388761449	0.2425177634769808	0.004232733467246166	-4.999999806142672	0	0	0	0	-8.87534903033212e-12	0	0	88.88218051017714	3.861531275699021e-45	1.272125752154762e-45	0	0	0	0	67.79232540092103	4.390776678967414e-45	0	0	0
3.980769230769221	6.556772650036266	-10.37357185684985	16.47425065988497	0	0.93	0	15.95707637579176	17.6407147585232	-22.52297890345641	69.86575873210857	1.219387524279274	-4.999999811035523	0	0	21.13531571486863	29.98845268329609	-39.86592172167228	16.76009330530544	0.2925188111190392	-4.999999811577133	0	0	0	0	-8.87534903033212e-12	0	0	89.93152409912614	0	0	0	0	0	0	65.98654284308971	0	5.064576123937286e-39	0	0
3.99999999999999	7.428667268676487	-10.09293154287026	19.62500486131865	0	0.93	0	8.91458406805093	22.01179763637888	-22.90010733739976	66.58194463644553	1.162074156286553	-4.999999811524869	0	0	26.11414876382463	29.98098814172419	-39.97667810870561	21.96533604995386	0.3833674353787004	-4.999999812059857	0	0	0	0	-8.87534903033212e-12	0	0	88.77422850426095	0	0	0	0	0	0	69.97921820300563	5.988732107865987e-39	0	0	0
4.019230769230759	7.77800503209486	-9.824324306101555	19.28264134235391	0	0.93	0	5.574249351316976	21.05221244582147	-8.041693486723664	66.70831905771033	1.164279806027926	-4.999999813411468	0	0	25.14258997734342	29.97746279691927	-39.97571228571071	19.51527555962518	0.3406058129494384	-4.99999981392093	0	0	0	0	-8.87534903033212e-12	0	0	89.23898601150285	0	0	0	0	0	0	73.15022167560048	0	4.077149773326885e-45	0	0
4.038461538461529	9.531423418125319	-11.38486695245283	19.75165288557583	0	0.93	0	-7.155492001332319	28.53886702977307	-15.8248209241918	40.05182908925897	0.6990362890536108	-4.999999815551011	0	0	27.62746356085312	29.98700369913325	-39.98392166294765	26.05294977531903	0.4547097534360339	-4.999999816063765	0	0	0	0	-8.87534903033212e-12	0	0	89.20606691574892	0	0	0	0	0	0	74.7464554967875	0	0	0	0
4.057692307692298	9.712585845376495	-8.473230375915943	16.42931588430582	0	0.93	0	-13.30527859412282	29.97915416290544	-29.21743687302451	42.3930119831484	0.7398976389433506	-4.999999817131865	0	0	34.63612125197481	29.98965653499674	-39.98376972669453	30.59302059505331	0.5339489375141152	-4.999999817621788	0	0	0	0	-8.87534903033212e-12	0	0	89.94990004968666	4.388639468418927e-39	0	0	0	0	0	67.85425880885511	0	0	0	0
4.076923076923067	9.427625691396347	-9.8285569963007	15.53901611503722	0	0.93	0	-13.12543507921499	29.72059245487976	-17.10960115182949	43.25477731284041	0.7549382813260105	-4.999999818368854	0	0	40.47905646442151	29.98966991377166	-39.97570168220818	33.43318422683619	0.5835191441841262	-4.999999818840906	0	0	0	0	-8.87534903033212e-12	0	0	89.96388160381463	0	5.848503647650465e-39	0	0	0	0	64.47798424697082	8.170162168287256e-39	0	0	0
4.096153846153836	9.804325516126305	-8.84812828859743	16.88700126205207	0	0.93	0	6.761470480755873	20.4721697614975	-8.806682365484528	64.63147626349395	1.128032061222532	-4.999999822482392	0	0	49.17294565035028	29.98793254551282	-39.98215405749568	40.62947639945831	0.7091181365318784	-4.99999982289503	0	0	0	0	-8.87534903033212e-12	0	0	89.94483877583609	1.126364255710893e-38	0	0	0	0	0	64.33654096629901	0	4.411496468955793e-38	0	0
4.115384615384605	8.011297071356166	-9.430319318559565	18.54144537625364	0	0.93	0	-0.465906246936899	29.7722356614914	-10.66237796258377	44.67727374853168	0.7797655277267069	-4.999999824078992	0	0	69.57294375906244	29.97008197868163	-39.98796046008596	55.87503860471823	0.9752033933312716	-4.999999824468591	0	0	0	0	-8.87534903033212e-12	0	0	89.80200919463111	3.433047628386616e-46	2.430608518714104e-45	0	0	0	0	65.58788990429902	6.272538112810592e-46	0	0	0
4.134615384615374	6.12134538130879	-6.209723685497796	16.24514322537398	0	0.93	0	-19.9837043726333	29.97688562994046	-12.10307943603713	18.55128103546311	0.3237809345316141	-4.999999825633876	0	0	84.79221579063557	29.5249469545353	-39.97520245234944	79.96068864941979	1.395577289094433	-4.999999826003221	0	0	0	0	-8.87534903033212e-12	0	0	89.93697462593146	1.717152490257993e-40	1.131376829092983e-38	0	0	0	0	62.92714823861231	0	3.552613838717625e-38	0	0
4.153846153846144	5.460400740874103	-2.774968187126863	13.82501456959665	0	0.93	0	-22.51948880844184	29.97000895842141	-13.16101006836592	11.77545950180697	0.2055205392417828	-4.999999827421942	0	0	100.5844769065117	29.95950816721676	-36.89740695051962	113.5642182711626	1.982069521285289	-4.999999827765305	0	0	0	0	-8.87534903033212e-12	0	0	89.96815973404203	0	0	0	0	0	0	59.7349537347606	0	0	0	0
4.173076923076913	5.407410539486715	-3.950626910556838	12.7951140481886	0	0.93	0	-3.474586923159491	23.98342627060675	-24.11992481969633	29.81362396995903	0.5203459002272881	-4.999999832545092	0	0	100.3014744540259	29.98118012989249	-28.1324222565377	118.6527781291772	2.07088164499246	-4.999999832832593	0	0	0	0	-8.87534903033212e-12	0	0	89.97742557029676	2.367803852704253e-38	1.136960634680335e-38	0	0	0	0	59.70691292671349	9.462794904752848e-40	9.291176556640051e-39	0	0
4.192307692307682	5.520195208089496	-3.028918044309139	14.0289980738912	0	0.93	0	9.452295059624941	12.35261311010532	-39.17172015963702	46.43191677197197	0.810389825682888	-4.999999833912971	0	0	100.1684865355974	29.9683203632217	-35.32234423709433	119.6230481199934	2.087816050965498	-4.999999834056729	0	0	0	0	-8.87534903033212e-12	0	0	89.97353359011888	0	4.454086193174872e-38	0	0	0	0	61.87871506227848	0	0	0	0
4.211538461538451	5.429008467084445	-2.311516139940537	15.95238717435381	0	0.93	0	1.031949398057608	18.34020361074032	-37.73955875386175	36.2593493039377	0.6328450299844269	-4.999999846554009	0	0	38.15558011980793	29.8356105694812	-35.05573511015859	44.50474464836972	0.7767543268733775	-4.999999846538164	0	0	0	0	-8.87534903033212e-12	0	0	89.93991544400309	5.358335754990409e-39	0	0	0	0	0	64.99538244014173	3.648876473922733e-39	0	0	0
4.23076923076922	5.894343258450737	-2.373466111505806	19.30619243338126	0	0.93	0	-5.410061551237301	21.24627950567528	-30.99430835098492	31.10252284248163	0.54284142927805	-4.999999846893403	2.744084680674732e-18	3.078003841763411e-22	14.70919542427244	29.89840029733525	-39.9643588997626	18.37593726786035	0.3207206084640943	-4.999999846878638	-3.385525333729356e-20	3.219803879659059e-22	5.97529235616604e-25	6.581646444768362e-23	-8.875349030329477e-12	4.526607538453815e-18	4.980786954795222e-19	87.05509101418116	0	2.719310298839307e-14	1.382241013550233e-20	5.501395777963542e-20	1.527136311796858e-15	-8.674287289236364e-17	69.95670395912853	5.802238483477392e-15	4.61817799392296e-15	-1.778192290190192e-20	1.141249885728063e-19
